<svg width="20" height="17" viewBox="0 0 20 17" fill="none" xmlns="http://www.w3.org/2000/svg">
<g clip-path="url(#clip0_139_6527)">
<path d="M10.0119 15.4597C7.01369 15.4597 4.01627 15.4597 1.01806 15.4597C0.714934 15.4597 0.574786 15.5984 0.574786 15.8977C0.574786 15.9752 0.578723 16.0527 0.573999 16.1295C0.5677 16.2225 0.558252 16.3155 0.54093 16.4062C0.476368 16.7372 0.159068 17.0023 -0.220432 16.9984C-0.601507 16.9946 -0.917233 16.7116 -0.974709 16.3481C-0.988094 16.2628 -0.99518 16.1752 -0.99518 16.0891C-0.995967 14.3279 -1.00778 12.5659 -0.991243 10.8046C-0.981795 9.77829 -0.602295 8.88527 0.125212 8.14186C0.566913 7.69069 1.09207 7.36976 1.69282 7.16511C2.16522 7.00465 2.65338 6.95581 3.15098 6.95581C7.76246 6.95736 12.3739 6.95348 16.9854 6.95891C18.3365 6.96046 19.4309 7.4969 20.2419 8.56356C20.6403 9.08837 20.8781 9.68449 20.9592 10.3357C20.9867 10.555 20.9985 10.7783 20.9993 11C21.0025 12.7101 21.0017 14.4202 21.0009 16.1302C21.0009 16.3977 20.934 16.6411 20.7104 16.8178C20.4741 17.0046 20.2104 17.0535 19.9293 16.9395C19.66 16.8295 19.49 16.6271 19.4514 16.338C19.4317 16.1922 19.4341 16.0426 19.4301 15.8953C19.4238 15.6574 19.3238 15.5139 19.1239 15.4698C19.0798 15.4597 19.0333 15.4605 18.9876 15.4605C15.9965 15.4605 13.0054 15.4605 10.0135 15.4605L10.0119 15.4597Z" fill="white"/>
<path d="M9.90246 0C11.8472 0 13.7912 0 15.7351 0C16.3862 0 16.9949 0.143411 17.52 0.539535C18.1956 1.04884 18.59 1.71938 18.6231 2.56124C18.6514 3.27519 18.6388 3.9907 18.642 4.70543C18.6444 5.16589 18.642 5.62636 18.642 6.08682C18.642 6.12791 18.6396 6.17132 18.6286 6.21085C18.5948 6.33566 18.5263 6.38527 18.3971 6.36124C18.2562 6.33488 18.12 6.27829 17.979 6.26279C17.6476 6.22713 17.3153 6.20233 16.9823 6.18527C16.7602 6.17364 16.6917 6.13411 16.6602 5.91938C16.5595 5.23876 15.9194 4.62636 15.1005 4.63566C14.1872 4.64574 13.2739 4.63798 12.3613 4.63798C11.6819 4.63798 11.1016 5.03643 10.8709 5.66434C10.8378 5.75426 10.8252 5.85194 10.8079 5.94651C10.7756 6.11628 10.7119 6.17984 10.5402 6.18217C10.1804 6.18605 9.81979 6.18605 9.45997 6.18217C9.29463 6.18062 9.22928 6.11628 9.19936 5.92791C9.15763 5.66357 9.0537 5.42791 8.88364 5.22093C8.57579 4.84574 8.17739 4.64186 7.68609 4.63953C6.74363 4.63488 5.80118 4.63721 4.85794 4.63876C4.06587 4.63953 3.44623 5.24884 3.34545 5.91783C3.31317 6.13411 3.24782 6.17209 3.02579 6.18605C2.6581 6.21008 2.29041 6.24419 1.92351 6.28295C1.81092 6.29457 1.70305 6.34264 1.59125 6.36124C1.47078 6.38062 1.41488 6.34031 1.38103 6.22403C1.36764 6.17829 1.36134 6.12946 1.36134 6.0814C1.36055 4.97674 1.3456 3.87209 1.36449 2.76744C1.38418 1.61163 1.92666 0.762016 2.988 0.248062C3.40844 0.0457364 3.86431 0 4.3257 0C6.18462 0 8.04354 0 9.90246 0Z" fill="white"/>
</g>
<defs>
<clipPath id="clip0_139_6527">
<rect width="22" height="17" fill="white" transform="translate(-1)"/>
</clipPath>
</defs>
</svg>
